CddbId:2c0eb914:[150, 13895, 26292, 37405, 52315, 64830, 78032, 98022, 122592, 140382, 152347, 166400, 176720, 186725, 193060, 205497, 238092, 244277, 260037, 266090]:282825:74:2c0eb914 20 150 13895 26292 37405 52315 64830 78032 98022 122592 140382 152347 166400 176720 186725 193060 205497 238092 244277 260037 266090 3771: 20 0 0 0 0 0 0 0 0 0 0 0 0 0 0 0 0 0 0 0 0 3771
num_tracks: 20
offsets: [150, 13895, 26292, 37405, 52315, 64830, 78032, 98022, 122592, 140382, 152347, 166400, 176720, 186725, 193060, 205497, 238092, 244277, 260037, 266090]
extents: [0, 0, 0, 0, 0, 0, 0, 0, 0, 0, 0, 0, 0, 0, 0, 0, 0, 0, 0, 0]
total_length: 3771
cddb: [739162388, 20, 150, 13895, 26292, 37405, 52315, 64830, 78032, 98022, 122592, 140382, 152347, 166400, 176720, 186725, 193060, 205497, 238092, 244277, 260037, 266090, 3771]
musicbrainz: ('20 150 13895 26292 37405 52315 64830 78032 98022 122592 140382 152347 166400 176720 186725 193060 205497 238092 244277 260037 266090 282855', 'GXSFAHK9Q3078rGTBNH9EbIPK.s-')

CD record:
Device type    : Removable CD-ROM
Version        : 0
Response Format: 1
Vendor_info    : 'SAMSUNG '
Identification : 'CD-ROM SC-148A  '
Revision       : 'B403'
Device seems to be: Generic mmc CD-ROM.
Using generic SCSI-3/mmc   CD-ROM driver (mmc_cd).
Driver flags   : MMC-2 SWABAUDIO 
Supported modes: 
first: 1 last 20
track:   1 lba:         0 (        0) 00:02:00 adr: 1 control: 0 mode: -1
track:   2 lba:     13745 (    54980) 03:05:20 adr: 1 control: 0 mode: -1
track:   3 lba:     26142 (   104568) 05:50:42 adr: 1 control: 0 mode: -1
track:   4 lba:     37255 (   149020) 08:18:55 adr: 1 control: 0 mode: -1
track:   5 lba:     52165 (   208660) 11:37:40 adr: 1 control: 0 mode: -1
track:   6 lba:     64680 (   258720) 14:24:30 adr: 1 control: 0 mode: -1
track:   7 lba:     77882 (   311528) 17:20:32 adr: 1 control: 0 mode: -1
track:   8 lba:     97872 (   391488) 21:46:72 adr: 1 control: 0 mode: -1
track:   9 lba:    122442 (   489768) 27:14:42 adr: 1 control: 0 mode: -1
track:  10 lba:    140232 (   560928) 31:11:57 adr: 1 control: 0 mode: -1
track:  11 lba:    152197 (   608788) 33:51:22 adr: 1 control: 0 mode: -1
track:  12 lba:    166250 (   665000) 36:58:50 adr: 1 control: 0 mode: -1
track:  13 lba:    176570 (   706280) 39:16:20 adr: 1 control: 0 mode: -1
track:  14 lba:    186575 (   746300) 41:29:50 adr: 1 control: 0 mode: -1
track:  15 lba:    192910 (   771640) 42:54:10 adr: 1 control: 0 mode: -1
track:  16 lba:    205347 (   821388) 45:39:72 adr: 1 control: 0 mode: -1
track:  17 lba:    237942 (   951768) 52:54:42 adr: 1 control: 0 mode: -1
track:  18 lba:    244127 (   976508) 54:17:02 adr: 1 control: 0 mode: -1
track:  19 lba:    259887 (  1039548) 57:47:12 adr: 1 control: 0 mode: -1
track:  20 lba:    265940 (  1063760) 59:07:65 adr: 1 control: 0 mode: -1
track:lout lba:    282705 (  1130820) 62:51:30 adr: 1 control: 0 mode: -1
